<svg version="1.1" id="Layer_1" xmlns="http://www.w3.org/2000/svg" xmlns:xlink="http://www.w3.org/1999/xlink" x="0px" y="0px"
	 width="100%" viewBox="0 0 3396 1748" enable-background="new 0 0 3396 1748" xml:space="preserve">
<path fill="#FFFFFF" opacity="1.000000" stroke="none" 
	d="
M2520.000000,1750.000000 
	C1680.000000,1750.000000 841.000000,1750.000000 2.000000,1750.000000 
	C2.000000,1167.333374 2.000000,584.666687 2.000000,2.000000 
	C1134.000000,2.000000 2266.000000,2.000000 3398.000000,2.000000 
	C3398.000000,584.666687 3398.000000,1167.333374 3398.000000,1750.000000 
	C3105.666748,1750.000000 2813.333252,1750.000000 2520.000000,1750.000000 
z"/>
<path fill="#020202" opacity="1.000000" stroke="none" 
	d="
M940.000000,367.897766 
	C1643.607056,367.897766 2346.214111,367.897736 3048.821289,367.897858 
	C3062.141602,367.897858 3062.143555,367.898438 3062.143555,380.821869 
	C3062.143799,749.123962 3062.149902,1117.426025 3062.118652,1485.728149 
	C3062.117432,1499.770142 3063.851807,1497.709229 3049.829346,1497.709717 
	C2127.574219,1497.743042 1205.319092,1497.743408 283.063934,1497.709351 
	C268.131012,1497.708740 270.215149,1499.759155 270.211487,1485.250000 
	C270.127380,1153.278931 270.088287,821.307922 270.055573,489.336914 
	C270.051941,452.340851 270.111176,415.344757 270.195343,378.348785 
	C270.221863,366.699310 268.803253,367.912170 281.055206,367.911133 
	C500.370148,367.892731 719.685059,367.897766 940.000000,367.897766 
z"/>
<path fill="#FEFEFE" opacity="1.000000" stroke="none" 
	d="
M3040.606201,1354.000488 
	C3040.606201,1392.000000 3040.609375,1428.999634 3040.604248,1465.999146 
	C3040.602783,1476.356201 3040.591309,1476.356201 3029.813232,1476.364624 
	C3028.813232,1476.365356 3027.813232,1476.364746 3026.813232,1476.364746 
	C2119.824707,1476.364746 1212.836060,1476.364868 305.847473,1476.364746 
	C292.236511,1476.364746 292.236206,1476.364136 292.236206,1462.688599 
	C292.236145,1442.022217 292.207367,1421.355713 292.251099,1400.689453 
	C292.268646,1392.390015 292.341187,1392.381348 300.183167,1392.262817 
	C302.515930,1392.227661 304.849670,1392.257202 307.182983,1392.257202 
	C755.510681,1392.257202 1203.838379,1392.257324 1652.166138,1392.257202 
	C1665.120605,1392.257202 1665.122559,1392.256348 1665.122559,1378.870728 
	C1665.122925,1081.541138 1665.131836,784.211548 1665.096802,486.881989 
	C1665.095093,471.831360 1666.886353,474.108063 1652.559692,474.106720 
	C1203.565308,474.064667 754.570984,474.072266 305.576599,474.072144 
	C292.237396,474.072144 292.236603,474.071533 292.236328,461.082672 
	C292.235809,439.749603 292.193604,418.416412 292.261169,397.083557 
	C292.283142,390.142242 292.414551,390.131714 299.446442,389.971222 
	C301.445374,389.925598 303.446228,389.963989 305.446198,389.963989 
	C1212.768066,389.963959 2120.090088,389.963989 3027.411865,389.964081 
	C3040.604736,389.964081 3040.605957,389.964630 3040.605957,403.015076 
	C3040.606201,719.676819 3040.606201,1036.338623 3040.606201,1354.000488 
z"/>
<path fill="#FCFCFC" opacity="1.000000" stroke="none" 
	d="
M617.896179,1020.134583 
	C598.778442,992.475769 580.038757,965.425598 560.876587,937.765564 
	C557.889587,940.997070 559.088806,944.423706 559.084534,947.398804 
	C559.005127,1002.375916 559.036499,1057.353271 559.018982,1112.330444 
	C559.014832,1125.376099 559.760559,1123.343018 547.669739,1123.380371 
	C520.014771,1123.465820 492.359314,1123.435913 464.704193,1123.389404 
	C456.708466,1123.375854 456.609131,1123.276855 456.607666,1115.104980 
	C456.586060,993.488708 456.587524,871.872375 456.604004,750.256104 
	C456.605164,741.749817 456.679962,741.685120 465.358612,741.675415 
	C493.680176,741.643677 522.001831,741.679199 550.323425,741.654297 
	C559.318298,741.646423 559.040222,741.059692 559.036133,750.291931 
	C559.014893,797.938904 559.026367,845.585815 559.026367,893.232788 
	C559.026367,896.761108 559.026367,900.289368 559.026367,905.176147 
	C563.312927,902.553711 564.692505,899.558533 566.474487,897.024170 
	C600.950745,847.993164 635.522705,799.028137 669.671814,749.769958 
	C674.012024,743.509460 678.463440,741.392761 685.919189,741.482117 
	C720.225891,741.893555 754.540222,741.663452 789.245850,741.663452 
	C789.433411,745.724854 786.476257,747.765564 784.642883,750.201538 
	C743.987183,804.219604 703.255432,858.180481 662.539490,912.153198 
	C662.338928,912.418945 662.166992,912.706299 661.966553,912.972229 
	C656.312134,920.473877 656.273499,920.500977 661.584961,927.933289 
	C700.501953,982.389282 739.434570,1036.834106 778.364807,1091.280518 
	C784.562866,1099.948853 790.790283,1108.596313 796.963318,1117.282349 
	C798.057251,1118.821533 799.554443,1120.237305 799.606506,1123.406738 
	C796.793762,1123.406738 794.268127,1123.406738 791.742554,1123.406738 
	C761.088562,1123.406982 730.431335,1123.165527 699.783020,1123.581299 
	C692.349792,1123.682129 687.827393,1121.679199 683.518677,1115.292725 
	C662.103882,1083.551392 640.082153,1052.219482 617.896179,1020.134583 
z"/>
<path fill="#FDFDFD" opacity="1.000000" stroke="none" 
	d="
M1102.000000,741.670959 
	C1113.998901,741.670959 1124.998047,741.660767 1135.997070,741.674316 
	C1144.624512,741.684875 1144.352905,740.666870 1144.342163,749.450195 
	C1144.320557,767.115356 1144.309204,784.780640 1144.346802,802.445740 
	C1144.364014,810.583557 1144.577881,810.191040 1136.885620,810.176880 
	C1114.554199,810.135620 1092.222656,810.162292 1069.891235,810.162354 
	C1036.560669,810.162415 1003.230164,810.142212 969.899658,810.177307 
	C961.939880,810.185669 961.863464,810.270325 961.848450,818.387939 
	C961.806396,841.052612 961.797546,863.717529 961.849365,886.382141 
	C961.874329,897.293701 960.609619,896.144592 971.236145,896.152466 
	C1015.899048,896.185486 1060.561890,896.166321 1105.224854,896.166321 
	C1106.891357,896.166321 1108.558350,896.141541 1110.224243,896.170837 
	C1117.696167,896.302246 1117.789429,896.307495 1117.814697,903.892761 
	C1117.873535,921.557739 1117.860596,939.223145 1117.821777,956.888245 
	C1117.802734,965.576111 1117.747559,965.648987 1109.232788,965.653809 
	C1063.903320,965.679749 1018.573792,965.664795 973.244324,965.666992 
	C961.836487,965.667542 961.834656,965.672607 961.833984,977.422852 
	C961.832703,1000.087585 961.813232,1022.752380 961.843079,1045.417114 
	C961.856079,1055.260254 960.774841,1054.318726 971.084778,1054.323120 
	C1024.746948,1054.345703 1078.409058,1054.333618 1132.071167,1054.333862 
	C1134.404297,1054.333862 1136.751465,1054.499512 1139.067383,1054.300537 
	C1142.880005,1053.972778 1144.411377,1055.427368 1144.386963,1059.368530 
	C1144.265503,1079.032837 1144.263794,1098.698608 1144.388184,1118.362793 
	C1144.413452,1122.359619 1142.763672,1123.734497 1139.005615,1123.422852 
	C1137.019531,1123.258179 1135.008423,1123.398193 1133.008545,1123.398193 
	C1045.682617,1123.398438 958.356628,1123.398438 871.030640,1123.398193 
	C869.030823,1123.398193 867.020142,1123.261597 865.033447,1123.422363 
	C861.315918,1123.723389 859.322021,1122.433472 859.640930,1118.400146 
	C859.798035,1116.412842 859.664246,1114.402710 859.664185,1112.402832 
	C859.663940,992.412964 859.645508,872.423096 859.691772,752.433228 
	C859.696594,739.974976 857.989136,741.708679 870.019653,741.699829 
	C947.013123,741.643188 1024.006592,741.670959 1102.000000,741.670959 
z"/>
<path fill="#FDFDFD" opacity="1.000000" stroke="none" 
	d="
M1489.972656,803.982666 
	C1462.318115,856.046021 1435.013794,907.458923 1407.505737,958.762695 
	C1405.017944,963.402649 1404.285400,967.978516 1404.293457,973.048218 
	C1404.366577,1019.350342 1404.336548,1065.652710 1404.335693,1111.954956 
	C1404.335571,1114.286621 1404.241211,1116.622070 1404.340576,1118.949219 
	C1404.491333,1122.480103 1402.676880,1123.656982 1399.425049,1123.408691 
	C1398.100586,1123.307373 1396.761597,1123.398560 1395.429199,1123.398560 
	C1367.781128,1123.398926 1340.132935,1123.401367 1312.484863,1123.397583 
	C1301.402222,1123.395996 1302.615601,1124.071777 1302.610229,1112.867554 
	C1302.588379,1067.231567 1302.445068,1021.594482 1302.743530,975.960388 
	C1302.797974,967.645447 1300.772583,960.529785 1296.898804,953.278992 
	C1261.003540,886.092041 1225.337524,818.782654 1189.651245,751.484192 
	C1188.157104,748.666626 1185.628418,746.179504 1185.964966,742.681030 
	C1187.884521,741.096680 1189.936646,741.703918 1191.828613,741.701294 
	C1222.474731,741.658569 1253.121948,741.799988 1283.765991,741.548950 
	C1289.146606,741.504822 1291.894409,743.012329 1294.270264,748.093872 
	C1311.876709,785.752991 1329.930420,823.202759 1347.690186,860.790771 
	C1350.049194,865.783508 1351.542480,871.185303 1353.669434,877.038147 
	C1356.401611,875.415283 1356.354492,872.870300 1357.104614,871.005249 
	C1369.893433,839.201843 1385.302856,808.578064 1399.214478,777.281250 
	C1403.807129,766.949402 1408.687378,756.744995 1413.231689,746.392517 
	C1414.568115,743.347961 1416.053223,741.593628 1419.750244,741.606262 
	C1453.653564,741.722290 1487.557495,741.674561 1523.112305,741.674561 
	C1511.730835,763.030273 1500.999268,783.166565 1489.972656,803.982666 
z"/>
<path fill="#020202" opacity="1.000000" stroke="none" 
	d="
M2661.090576,776.900635 
	C2662.351318,776.009277 2662.997070,775.707764 2663.642822,775.708008 
	C2713.271240,775.730347 2762.905029,775.370789 2812.525391,776.023315 
	C2831.952148,776.278748 2850.650146,781.274048 2868.120361,790.384705 
	C2894.560547,804.173218 2910.821045,825.809753 2918.045166,854.414978 
	C2923.438477,875.770691 2923.717529,897.219971 2918.090332,918.644531 
	C2911.830078,942.479858 2898.644043,961.422119 2878.328613,975.403259 
	C2871.308350,980.234680 2871.272217,980.310425 2875.230469,987.571350 
	C2890.995605,1016.488586 2906.817383,1045.375122 2922.574951,1074.296509 
	C2923.976807,1076.869263 2926.072021,1079.171387 2926.187988,1082.388672 
	C2924.717529,1085.206421 2922.087158,1083.937500 2920.022217,1083.943604 
	C2891.710449,1084.027222 2863.396240,1083.797119 2835.088623,1084.149536 
	C2828.778320,1084.228149 2825.756836,1081.994873 2823.069824,1076.474976 
	C2811.280029,1052.257690 2798.817627,1028.368286 2787.019531,1004.155151 
	C2784.174072,998.315552 2781.010254,995.330078 2774.162354,996.127747 
	C2768.247070,996.816833 2762.158203,996.643066 2756.201172,996.164185 
	C2750.584473,995.712646 2749.592773,998.204529 2749.630615,1003.116211 
	C2749.816162,1027.096680 2749.741699,1051.079224 2749.702881,1075.061157 
	C2749.688721,1083.873413 2749.618164,1083.960815 2741.102295,1083.978271 
	C2717.453613,1084.026733 2693.804688,1083.973633 2670.156006,1084.005493 
	C2659.039307,1084.020508 2660.225098,1084.161865 2660.223389,1073.393921 
	C2660.214355,1013.439209 2660.188232,953.484558 2660.229980,893.529846 
	C2660.256836,854.896973 2660.389893,816.264160 2661.090576,776.900635 
z"/>
<path fill="#010101" opacity="1.000000" stroke="none" 
	d="
M1936.512573,1013.401367 
	C1932.534058,998.965698 1923.941040,994.550171 1909.735229,995.933289 
	C1894.578003,997.408997 1894.467285,996.266052 1894.467041,1011.381836 
	C1894.466919,1033.040405 1894.510742,1054.698975 1894.440308,1076.357300 
	C1894.415894,1083.843140 1894.285645,1083.953003 1886.647461,1083.970215 
	C1862.323364,1084.025391 1837.999023,1084.022461 1813.674927,1083.972778 
	C1805.664062,1083.956543 1805.561035,1083.860596 1805.552979,1075.673218 
	C1805.513550,1036.021484 1805.534058,996.369690 1805.533936,956.717896 
	C1805.533813,900.405701 1805.533936,844.093506 1805.534546,787.781311 
	C1805.534546,785.448853 1805.678833,783.106628 1805.513672,780.786194 
	C1805.237671,776.908936 1806.933472,775.266907 1810.757080,775.630615 
	C1811.747559,775.724792 1812.754883,775.636597 1813.754517,775.637451 
	C1860.403320,775.676819 1907.054565,775.459656 1953.700073,775.872437 
	C1974.916138,776.060181 1995.230713,780.853394 2014.169067,790.953125 
	C2045.263306,807.535645 2060.966309,834.416443 2065.822266,868.300720 
	C2068.341797,885.880920 2067.513184,903.402283 2062.541992,920.694946 
	C2055.921875,943.722168 2042.937500,961.956177 2023.219604,975.492249 
	C2016.272339,980.261475 2016.232910,980.372559 2020.313232,987.836304 
	C2035.957886,1016.452881 2051.687500,1045.023071 2067.302490,1073.655640 
	C2068.861572,1076.514526 2071.049561,1079.138062 2071.516602,1082.701172 
	C2069.802246,1085.020996 2067.299805,1083.935669 2065.222656,1083.941406 
	C2036.900269,1084.020264 2008.575317,1083.804932 1980.256470,1084.138916 
	C1974.012573,1084.212402 1970.783325,1082.077637 1968.107178,1076.562256 
	C1957.940552,1055.609375 1947.306641,1034.883301 1936.512573,1013.401367 
z"/>
<path fill="#020202" opacity="1.000000" stroke="none" 
	d="
M2258.000000,891.965149 
	C2277.666504,891.965515 2296.333008,891.912598 2314.999268,891.993591 
	C2322.104736,892.024414 2322.268555,892.163757 2322.302490,899.126404 
	C2322.394775,918.125671 2322.390137,937.126038 2322.308838,956.125427 
	C2322.276611,963.655640 2322.138916,963.785156 2314.468750,963.798828 
	C2283.469238,963.854065 2252.469482,963.821350 2221.469971,963.823914 
	C2219.136963,963.824097 2216.803955,963.858826 2214.470947,963.855347 
	C2212.011719,963.851624 2210.831787,965.200256 2210.823730,967.519470 
	C2210.779541,980.518921 2210.777832,993.518494 2210.783203,1006.518066 
	C2210.784424,1009.802429 2212.535400,1011.365234 2215.769775,1011.370728 
	C2218.103027,1011.374695 2220.436523,1011.395508 2222.769775,1011.395630 
	C2257.769287,1011.397217 2292.768799,1011.396240 2327.768311,1011.397156 
	C2330.101562,1011.397217 2332.435791,1011.453247 2334.767822,1011.401917 
	C2338.186035,1011.326721 2339.451416,1013.124634 2339.446533,1016.344666 
	C2339.414551,1037.344360 2339.414062,1058.343994 2339.436035,1079.343628 
	C2339.439453,1082.724121 2337.787842,1084.132812 2334.506104,1084.000122 
	C2332.509766,1083.919312 2330.507080,1083.998413 2328.507080,1083.998413 
	C2263.507812,1083.999023 2198.508789,1084.001709 2133.509521,1083.996094 
	C2122.108887,1083.995117 2122.525391,1085.061523 2122.527100,1073.358765 
	C2122.540771,977.693298 2122.534424,882.027771 2122.534424,786.362305 
	C2122.534424,785.695618 2122.526855,785.028870 2122.535889,784.362305 
	C2122.652344,775.741516 2122.652832,775.649048 2131.382568,775.645325 
	C2196.381836,775.617798 2261.380859,775.617432 2326.380127,775.646118 
	C2334.006836,775.649475 2334.090820,775.755188 2334.110107,783.089233 
	C2334.159668,802.088867 2334.176025,821.088867 2334.104492,840.088379 
	C2334.076660,847.522034 2333.953613,847.649719 2326.188232,847.661194 
	C2291.521973,847.712585 2256.855713,847.684448 2222.189453,847.685181 
	C2220.189453,847.685242 2218.179199,847.817200 2216.191895,847.657654 
	C2212.485840,847.360107 2210.678955,848.679382 2210.723877,852.669678 
	C2210.852051,864.001282 2210.875977,875.337036 2210.709229,886.667725 
	C2210.640625,891.347107 2213.092285,892.059326 2217.001221,892.018677 
	C2230.332764,891.880127 2243.666992,891.965332 2258.000000,891.965149 
z"/>
<path fill="#020202" opacity="1.000000" stroke="none" 
	d="
M2391.657471,943.999817 
	C2391.657471,891.679626 2391.657471,840.359497 2391.657471,789.039368 
	C2391.657471,787.706360 2391.656006,786.373413 2391.657715,785.040405 
	C2391.669922,775.397583 2390.696289,775.602356 2400.614990,775.626831 
	C2411.612305,775.653931 2422.609375,775.632080 2433.606689,775.632080 
	C2486.259766,775.631958 2538.912842,775.631897 2591.565918,775.632507 
	C2593.898682,775.632507 2596.236328,775.736023 2598.562988,775.620972 
	C2602.085205,775.446960 2603.167480,777.231750 2603.094482,780.487122 
	C2602.967285,786.149536 2603.052734,791.816711 2603.053467,797.481934 
	C2603.055420,811.811584 2603.138184,826.141846 2603.030029,840.470642 
	C2602.977295,847.467102 2602.817627,847.638489 2595.643066,847.652222 
	C2561.318604,847.718018 2526.994141,847.683105 2492.669678,847.682312 
	C2479.731445,847.682007 2479.730957,847.680054 2479.729492,861.109314 
	C2479.728760,868.107483 2479.741699,875.105713 2479.726807,882.103882 
	C2479.704102,892.923767 2479.348877,891.973572 2489.299561,891.971130 
	C2518.291992,891.964050 2547.285156,891.855713 2576.276855,892.010376 
	C2593.376465,892.101562 2591.360352,889.152588 2591.462402,907.474121 
	C2591.551514,923.469543 2591.545898,939.466125 2591.453613,955.461487 
	C2591.406006,963.666138 2591.279297,963.783936 2583.068848,963.798218 
	C2552.410156,963.851318 2521.751221,963.819946 2491.092529,963.820496 
	C2488.759766,963.820557 2486.425049,963.884827 2484.094727,963.809692 
	C2481.276611,963.718750 2479.738525,964.833008 2479.745361,967.818481 
	C2479.775879,980.814697 2479.782471,993.811035 2479.766357,1006.807312 
	C2479.761963,1010.291138 2481.735840,1011.422485 2484.863037,1011.381348 
	C2487.195312,1011.350647 2489.528320,1011.398682 2491.861084,1011.398804 
	C2526.518799,1011.400391 2561.176758,1011.399963 2595.834473,1011.399841 
	C2597.833984,1011.399841 2599.849609,1011.562988 2601.829590,1011.365295 
	C2606.544678,1010.894470 2608.303955,1012.728577 2608.182129,1017.605896 
	C2607.891113,1029.262329 2608.089600,1040.930786 2608.089111,1052.594482 
	C2608.088623,1061.258911 2607.990723,1069.924927 2608.127930,1078.587158 
	C2608.186279,1082.279541 2607.002441,1084.280396 2603.017090,1084.011230 
	C2601.026855,1083.876831 2599.020020,1083.995850 2597.020508,1083.995850 
	C2532.370361,1083.996216 2467.720459,1083.996216 2403.070312,1083.995850 
	C2401.070801,1083.995850 2399.063232,1083.875488 2397.073486,1084.013062 
	C2393.392334,1084.267090 2391.388428,1082.961426 2391.643066,1078.963379 
	C2391.791016,1076.640381 2391.658447,1074.299683 2391.658447,1071.967041 
	C2391.657715,1029.644653 2391.657715,987.322266 2391.657471,943.999817 
z"/>
<path fill="#FBFBFB" opacity="1.000000" stroke="none" 
	d="
M2770.013184,925.744019 
	C2763.711426,925.739441 2758.387939,925.618835 2753.072266,925.769348 
	C2749.260986,925.877258 2747.755859,924.311890 2747.771484,920.484192 
	C2747.863525,897.873779 2747.833496,875.262878 2747.815674,852.652100 
	C2747.813477,849.935181 2748.693359,848.029175 2751.735107,848.134033 
	C2768.642822,848.716919 2785.660156,846.417786 2802.458496,849.720459 
	C2822.607422,853.681885 2833.309326,867.436768 2832.553955,888.003418 
	C2831.815186,908.116638 2820.442871,920.904480 2800.805908,924.092773 
	C2790.904541,925.700378 2780.969727,925.890991 2770.013184,925.744019 
z"/>
<path fill="#FAFAFA" opacity="1.000000" stroke="none" 
	d="
M1972.305664,907.971313 
	C1962.199951,922.439209 1947.365356,924.785645 1932.192871,925.628357 
	C1921.227417,926.237366 1910.198730,925.612732 1899.203369,925.820312 
	C1894.673828,925.905884 1892.490845,924.661072 1892.529175,919.665833 
	C1892.698364,897.668945 1892.623047,875.669983 1892.584351,853.671936 
	C1892.578247,850.138184 1893.642090,848.002258 1897.680786,848.057312 
	C1912.341553,848.257263 1927.117065,847.202881 1941.644043,848.662659 
	C1977.026978,852.218079 1982.188477,880.738953 1974.789429,902.808167 
	C1974.265991,904.369690 1973.357056,905.802063 1972.305664,907.971313 
z"/>
</svg>